# xmcd
#
# Track frame offsets: 
#        150
#        15121
#        31833
#        49195
#        67998
#        88006
#        106395
#        125544
#        143212
#        162396
#
# Disc length: 2426 seconds
#
# Revision: 0
# Processed by: cddbd v1.5.2PL0 Copyright (c) Steve Scherf et al.
# Submitted via: ExactAudioCopy v1.0b3
#
DISCID=7a09780a
DTITLE=Tommy Thomas - I Can't Believe You Put That Dog Ahead of Me
DYEAR=2002
DGENRE=R&B
TTITLE0=You Put That Dog Ahead of Me
TTITLE1=Cravin for Your Love
TTITLE2=What A Real Man Should Do
TTITLE3=Why Didn't You Come Home
TTITLE4=Some Dirty Rat
TTITLE5=Cola
TTITLE6=Don't Give Me No Jive Woman
TTITLE7=Don't Make It Your Business
TTITLE8=Sweet Lady Love
TTITLE9=If You Don't Love Your Woman
EXTD=
EXTT0=
EXTT1=
EXTT2=
EXTT3=
EXTT4=
EXTT5=
EXTT6=
EXTT7=
EXTT8=
EXTT9=
PLAYORDER=
